<svg xmlns="http://www.w3.org/2000/svg" xmlns:xlink="http://www.w3.org/1999/xlink" width="1800" zoomAndPan="magnify" viewBox="0 0 1350 1349.999938" height="1800" preserveAspectRatio="xMidYMid meet" version="1.0"><path fill="#ffffff" d="M 666.582031 136.773438 C 666.019531 137.335938 663.425781 137.953125 660.820312 138.140625 C 657.421875 138.386719 655.886719 138.835938 655.378906 139.742188 C 654.910156 140.582031 653.710938 141 651.765625 141 C 650.167969 141 648.375 141.480469 647.785156 142.070312 C 647.199219 142.660156 645.402344 143.378906 643.796875 143.664062 C 642.1875 143.953125 640.367188 144.609375 639.75 145.121094 C 639.132812 145.632812 637.164062 146.238281 635.378906 146.464844 C 633.59375 146.6875 631.542969 147.40625 630.820312 148.0625 C 630.097656 148.714844 628.648438 149.25 627.59375 149.25 C 626.542969 149.25 625.300781 149.710938 624.832031 150.277344 C 624.363281 150.84375 622.605469 151.488281 620.929688 151.714844 C 619.253906 151.941406 617.292969 152.65625 616.570312 153.3125 C 615.847656 153.964844 614.101562 154.503906 612.691406 154.503906 C 611.28125 154.507812 609.113281 155.179688 607.875 156 C 606.636719 156.820312 604.570312 157.492188 603.277344 157.496094 C 601.988281 157.496094 600.515625 158.007812 600 158.625 C 599.484375 159.242188 598.144531 159.75 597.019531 159.75 C 594.425781 159.75 590.25 161.183594 590.25 162.074219 C 590.25 162.445312 589.273438 162.75 588.082031 162.75 C 586.890625 162.75 584.441406 163.417969 582.644531 164.234375 C 580.847656 165.050781 578.472656 165.722656 577.367188 165.734375 C 576.261719 165.742188 574.902344 166.203125 574.347656 166.757812 C 573.796875 167.3125 571.730469 167.949219 569.765625 168.167969 C 567.796875 168.390625 565.585938 169.117188 564.847656 169.785156 C 564.109375 170.453125 562.292969 171 560.808594 171 C 559.324219 171 557.640625 171.464844 557.074219 172.035156 C 556.503906 172.605469 554.300781 173.308594 552.179688 173.601562 C 550.0625 173.890625 547.929688 174.609375 547.445312 175.191406 C 546.960938 175.773438 545.257812 176.25 543.65625 176.25 C 542.054688 176.25 539.484375 176.925781 537.945312 177.75 C 536.40625 178.574219 534.121094 179.25 532.867188 179.25 C 531.609375 179.25 529.917969 179.714844 529.105469 180.28125 C 528.292969 180.851562 525.871094 181.554688 523.726562 181.847656 C 521.582031 182.140625 519.429688 182.859375 518.945312 183.441406 C 518.453125 184.035156 516.730469 184.5 515.03125 184.5 C 513.320312 184.5 511.421875 185.015625 510.6875 185.679688 C 509.972656 186.328125 507.484375 187.117188 505.164062 187.433594 C 502.84375 187.75 500.550781 188.398438 500.070312 188.878906 C 499.59375 189.359375 497.996094 189.75 496.527344 189.75 C 495.054688 189.75 492.59375 190.425781 491.054688 191.25 C 489.515625 192.074219 486.929688 192.75 485.304688 192.75 C 483.675781 192.75 481.851562 193.257812 481.226562 193.882812 C 480.601562 194.503906 478.019531 195.230469 475.488281 195.496094 C 472.953125 195.761719 470.425781 196.433594 469.867188 196.988281 C 469.300781 197.558594 467.273438 198 465.230469 198 C 463.035156 198 460.496094 198.59375 458.804688 199.5 C 457.226562 200.347656 454.574219 201 452.71875 201 C 450.863281 201 449.066406 201.445312 448.585938 202.019531 C 448.121094 202.582031 445.691406 203.226562 443.1875 203.457031 C 440.605469 203.691406 438.070312 204.382812 437.324219 205.058594 C 436.445312 205.851562 434.585938 206.25 431.75 206.25 C 428.925781 206.25 426.550781 206.753906 424.695312 207.75 C 422.84375 208.742188 420.464844 209.25 417.664062 209.25 C 414.820312 209.25 413.128906 209.617188 412.5 210.375 C 411.886719 211.113281 410.214844 211.5 407.644531 211.5 C 403.472656 211.5 399 212.703125 399 213.824219 C 399 214.195312 396.890625 214.503906 394.3125 214.503906 C 391.542969 214.507812 388.710938 214.984375 387.390625 215.671875 C 386.164062 216.3125 382.957031 217.035156 380.265625 217.273438 C 377.578125 217.511719 374.902344 218.078125 374.328125 218.535156 C 373.753906 218.992188 370.375 219.570312 366.816406 219.820312 C 363.140625 220.082031 359.320312 220.8125 357.964844 221.515625 C 356.484375 222.28125 353.769531 222.75 350.828125 222.75 C 348.066406 222.75 345.464844 223.175781 344.605469 223.765625 C 343.789062 224.324219 340.257812 225.011719 336.757812 225.296875 C 333.253906 225.582031 329.707031 226.261719 328.871094 226.808594 C 328.019531 227.367188 324.375 227.941406 320.496094 228.128906 C 316.308594 228.328125 313.160156 228.847656 312.421875 229.460938 C 311.691406 230.066406 308.160156 230.664062 303.542969 230.96875 C 299.324219 231.242188 295.199219 231.824219 294.375 232.257812 C 293.550781 232.691406 289.722656 233.242188 285.875 233.480469 C 281.441406 233.753906 278.21875 234.339844 277.085938 235.082031 C 275.8125 235.917969 273.417969 236.25 268.6875 236.25 C 263.996094 236.25 260.832031 236.6875 257.804688 237.75 C 255.457031 238.574219 252 239.25 250.121094 239.25 C 247.773438 239.25 246.566406 239.601562 246.269531 240.375 C 246.03125 241 244.917969 241.5 243.769531 241.5 C 242.632812 241.5 240.898438 242.117188 239.914062 242.871094 C 238.929688 243.625 237.535156 244.460938 236.8125 244.722656 C 236.089844 244.988281 235.5 245.527344 235.5 245.925781 C 235.5 246.324219 234.742188 246.878906 233.8125 247.160156 C 231.863281 247.753906 225.28125 254.429688 224.632812 256.476562 C 224.390625 257.238281 223.699219 258.050781 223.097656 258.28125 C 222.492188 258.511719 222 259.050781 222 259.476562 C 222 259.902344 221.324219 260.925781 220.5 261.75 C 219.675781 262.574219 219 263.882812 219 264.660156 C 219 265.433594 218.535156 266.453125 217.96875 266.921875 C 217.402344 267.394531 216.71875 269.15625 216.449219 270.839844 C 216.179688 272.519531 215.460938 274.394531 214.855469 275.003906 C 213.917969 275.9375 213.75 280.714844 213.742188 306.242188 C 213.679688 574.078125 213.921875 684.816406 214.582031 687.75 C 216.1875 694.863281 216.640625 698.882812 216.695312 706.386719 C 216.730469 711.371094 217.132812 714.996094 217.8125 716.511719 C 218.398438 717.8125 219.019531 721.574219 219.1875 724.875 C 219.371094 728.460938 220 731.839844 220.75 733.273438 C 221.53125 734.777344 222 737.449219 222 740.421875 C 222 743.363281 222.414062 745.757812 223.09375 746.726562 C 223.695312 747.585938 224.417969 750.554688 224.703125 753.324219 C 224.988281 756.09375 225.628906 758.773438 226.132812 759.277344 C 226.636719 759.777344 227.199219 762.273438 227.382812 764.816406 C 227.589844 767.714844 228.191406 769.96875 228.984375 770.84375 C 229.738281 771.679688 230.25 773.484375 230.25 775.316406 C 230.25 777.007812 230.703125 778.847656 231.257812 779.402344 C 231.8125 779.957031 232.449219 782.019531 232.667969 783.984375 C 232.890625 785.953125 233.617188 788.164062 234.285156 788.902344 C 234.984375 789.671875 235.5 791.535156 235.5 793.269531 C 235.5 795.160156 236.0625 797.011719 237 798.203125 C 237.824219 799.253906 238.5 801.089844 238.5 802.289062 C 238.5 803.484375 238.996094 805.117188 239.601562 805.917969 C 240.207031 806.71875 240.714844 808.257812 240.726562 809.335938 C 240.738281 810.414062 241.425781 812.15625 242.25 813.203125 C 243.074219 814.253906 243.75 816.132812 243.75 817.375 C 243.75 818.625 244.230469 820.125 244.820312 820.714844 C 245.410156 821.300781 246.121094 823 246.398438 824.492188 C 246.679688 825.980469 247.378906 827.585938 247.953125 828.066406 C 248.527344 828.542969 249 829.851562 249 830.976562 C 249 832.101562 249.675781 833.796875 250.5 834.75 C 251.324219 835.699219 252 837.398438 252 838.523438 C 252 839.648438 252.496094 840.976562 253.105469 841.484375 C 253.714844 841.988281 254.429688 843.574219 254.699219 845.007812 C 254.96875 846.445312 255.652344 847.796875 256.21875 848.015625 C 256.785156 848.234375 257.25 849.195312 257.25 850.152344 C 257.25 851.109375 257.761719 852.402344 258.382812 853.027344 C 259.007812 853.652344 259.726562 855.1875 259.976562 856.441406 C 260.226562 857.691406 260.894531 859.101562 261.464844 859.574219 C 262.035156 860.046875 262.5 861.019531 262.5 861.742188 C 262.5 862.460938 263.175781 863.90625 264 864.953125 C 264.824219 866.003906 265.5 867.546875 265.5 868.386719 C 265.5 869.226562 265.839844 870.121094 266.257812 870.378906 C 266.671875 870.636719 268.171875 873.324219 269.589844 876.355469 C 271.007812 879.382812 272.523438 882.082031 272.960938 882.351562 C 273.394531 882.617188 273.75 883.503906 273.75 884.316406 C 273.75 885.128906 274.257812 885.992188 274.875 886.226562 C 275.492188 886.464844 276 887.300781 276 888.078125 C 276 888.859375 276.675781 890.175781 277.5 891 C 278.324219 891.824219 279 893.007812 279 893.625 C 279 894.242188 279.675781 895.425781 280.5 896.25 C 281.324219 897.074219 282 898.226562 282 898.808594 C 282 900.117188 285.789062 906 286.632812 906 C 286.972656 906 287.25 906.652344 287.25 907.445312 C 287.25 908.242188 287.785156 909.429688 288.441406 910.082031 C 289.097656 910.738281 290.480469 912.871094 291.515625 914.824219 C 292.546875 916.777344 293.867188 918.644531 294.449219 918.976562 C 295.027344 919.304688 295.5 920.179688 295.5 920.921875 C 295.5 921.660156 296.175781 922.878906 297 923.625 C 297.824219 924.371094 298.5 925.4375 298.5 925.992188 C 298.5 926.546875 298.832031 927 299.238281 927 C 299.648438 927 300.445312 928.097656 301.015625 929.4375 C 301.585938 930.777344 302.9375 932.820312 304.023438 933.976562 C 305.109375 935.132812 306 936.269531 306 936.503906 C 306 937.617188 310.238281 943.449219 311.0625 943.472656 C 311.578125 943.488281 312 944.015625 312 944.648438 C 312 945.28125 312.476562 945.980469 313.058594 946.203125 C 313.640625 946.425781 314.328125 947.464844 314.59375 948.511719 C 314.855469 949.558594 316.234375 951.515625 317.660156 952.859375 C 319.085938 954.203125 320.25 955.648438 320.25 956.070312 C 320.25 956.492188 320.757812 957.035156 321.375 957.269531 C 321.992188 957.507812 322.5 958.167969 322.5 958.734375 C 322.5 959.304688 323.175781 960.378906 324 961.125 C 324.824219 961.871094 325.5 962.765625 325.5 963.113281 C 325.5 963.457031 327.113281 965.386719 329.082031 967.398438 C 331.050781 969.410156 333.652344 972.535156 334.859375 974.339844 C 336.070312 976.148438 338.171875 978.722656 339.53125 980.0625 C 340.886719 981.398438 342 982.835938 342 983.25 C 342 983.660156 342.484375 984 343.074219 984 C 343.664062 984 344.363281 984.675781 344.625 985.5 C 344.886719 986.324219 345.585938 987 346.175781 987 C 346.765625 987 347.25 987.363281 347.25 987.808594 C 347.25 988.253906 348.515625 989.894531 350.0625 991.453125 C 351.609375 993.015625 355.234375 996.953125 358.121094 1000.207031 C 365.140625 1008.121094 380.304688 1023.257812 385.851562 1027.890625 C 388.3125 1029.945312 391.964844 1033.226562 393.96875 1035.1875 C 395.972656 1037.144531 397.71875 1038.75 397.847656 1038.75 C 397.976562 1038.75 399.953125 1040.519531 402.238281 1042.6875 C 407.90625 1048.058594 410.25 1050 411.074219 1050 C 411.457031 1050 413.394531 1051.632812 415.382812 1053.632812 C 420.132812 1058.40625 426.613281 1063.5 427.941406 1063.5 C 428.523438 1063.5 429 1064.003906 429 1064.625 C 429 1065.242188 429.355469 1065.75 429.789062 1065.75 C 430.21875 1065.75 431.800781 1066.941406 433.296875 1068.394531 C 434.796875 1069.847656 436.804688 1071.234375 437.761719 1071.476562 C 438.71875 1071.714844 439.5 1072.222656 439.5 1072.605469 C 439.5 1072.984375 440 1073.488281 440.613281 1073.722656 C 441.226562 1073.960938 442.976562 1075.296875 444.503906 1076.695312 C 446.03125 1078.09375 447.902344 1079.433594 448.660156 1079.675781 C 449.421875 1079.917969 451.296875 1081.269531 452.832031 1082.679688 C 454.367188 1084.089844 455.890625 1085.246094 456.21875 1085.246094 C 457.0625 1085.25 461.511719 1088.445312 462.226562 1089.5625 C 462.554688 1090.078125 463.113281 1090.5 463.46875 1090.5 C 464.480469 1090.5 470.25 1094.441406 470.25 1095.132812 C 470.25 1095.472656 470.703125 1095.75 471.257812 1095.75 C 471.8125 1095.75 472.878906 1096.425781 473.625 1097.25 C 474.371094 1098.074219 475.53125 1098.75 476.199219 1098.75 C 476.871094 1098.75 477.960938 1099.339844 478.621094 1100.0625 C 480.679688 1102.300781 483.25 1104 484.570312 1104 C 485.269531 1104 486.035156 1104.511719 486.273438 1105.136719 C 486.515625 1105.761719 487.480469 1106.621094 488.417969 1107.042969 C 491.097656 1108.253906 493.371094 1109.648438 494.867188 1111.003906 C 495.625 1111.6875 496.753906 1112.25 497.378906 1112.25 C 498.003906 1112.25 499.128906 1112.925781 499.875 1113.75 C 500.621094 1114.574219 501.648438 1115.25 502.160156 1115.25 C 502.671875 1115.25 503.285156 1115.753906 503.519531 1116.375 C 503.757812 1116.992188 504.796875 1117.5 505.824219 1117.5 C 506.929688 1117.5 508.027344 1118.113281 508.5 1119 C 508.941406 1119.824219 509.914062 1120.5 510.660156 1120.5 C 511.40625 1120.5 512.628906 1121.175781 513.375 1122 C 514.121094 1122.824219 515.144531 1123.5 515.648438 1123.5 C 516.152344 1123.5 516.984375 1124.003906 517.5 1124.625 C 518.011719 1125.242188 518.992188 1125.75 519.675781 1125.75 C 520.359375 1125.75 521.496094 1126.425781 522.199219 1127.25 C 522.90625 1128.074219 524.332031 1128.75 525.367188 1128.75 C 526.492188 1128.75 527.25 1129.175781 527.25 1129.816406 C 527.25 1130.402344 528.238281 1131.097656 529.449219 1131.363281 C 530.65625 1131.628906 532.046875 1132.332031 532.539062 1132.921875 C 533.03125 1133.515625 533.851562 1134 534.367188 1134 C 534.878906 1134 536.15625 1134.675781 537.203125 1135.5 C 538.253906 1136.324219 539.613281 1137 540.226562 1137 C 540.839844 1137 541.535156 1137.503906 541.769531 1138.125 C 542.007812 1138.742188 542.835938 1139.25 543.613281 1139.25 C 544.386719 1139.25 545.800781 1139.925781 546.75 1140.75 C 547.699219 1141.574219 548.964844 1142.25 549.558594 1142.25 C 550.152344 1142.25 551.496094 1142.925781 552.546875 1143.75 C 553.59375 1144.574219 555.046875 1145.25 555.769531 1145.25 C 556.496094 1145.25 557.285156 1145.753906 557.519531 1146.375 C 557.757812 1146.992188 558.753906 1147.5 559.734375 1147.5 C 560.714844 1147.5 562.128906 1148.175781 562.875 1149 C 563.621094 1149.824219 564.855469 1150.5 565.617188 1150.5 C 566.378906 1150.5 567.675781 1151.175781 568.5 1152 C 569.324219 1152.824219 570.632812 1153.5 571.410156 1153.5 C 572.183594 1153.5 573.234375 1154.003906 573.75 1154.625 C 574.261719 1155.242188 575.265625 1155.75 575.976562 1155.75 C 576.6875 1155.75 578.050781 1156.425781 579 1157.25 C 579.949219 1158.074219 581.484375 1158.75 582.410156 1158.75 C 583.332031 1158.75 584.273438 1159.222656 584.492188 1159.804688 C 584.714844 1160.382812 585.910156 1161.082031 587.148438 1161.351562 C 588.382812 1161.625 589.796875 1162.332031 590.289062 1162.921875 C 590.78125 1163.515625 591.847656 1164 592.660156 1164 C 593.472656 1164 594.996094 1164.675781 596.046875 1165.5 C 597.09375 1166.324219 598.539062 1167 599.257812 1167 C 599.976562 1167 600.957031 1167.46875 601.433594 1168.046875 C 601.914062 1168.621094 603.4375 1169.304688 604.824219 1169.566406 C 606.214844 1169.828125 607.761719 1170.535156 608.265625 1171.144531 C 608.769531 1171.753906 609.847656 1172.25 610.660156 1172.25 C 611.472656 1172.25 612.996094 1172.925781 614.046875 1173.75 C 615.09375 1174.574219 616.714844 1175.25 617.644531 1175.25 C 618.578125 1175.25 619.535156 1175.753906 619.769531 1176.375 C 620.007812 1176.992188 621.089844 1177.5 622.171875 1177.5 C 623.253906 1177.5 624.996094 1178.175781 626.046875 1179 C 627.09375 1179.824219 628.710938 1180.5 629.632812 1180.5 C 630.558594 1180.5 631.738281 1181.007812 632.253906 1181.632812 C 632.769531 1182.253906 634.480469 1182.96875 636.050781 1183.21875 C 637.621094 1183.472656 639.085938 1184.144531 639.304688 1184.714844 C 639.523438 1185.28125 640.613281 1185.75 641.730469 1185.75 C 642.84375 1185.75 644.347656 1186.285156 645.070312 1186.9375 C 645.792969 1187.589844 647.84375 1188.316406 649.628906 1188.546875 C 651.414062 1188.78125 653.121094 1189.386719 653.425781 1189.898438 C 653.726562 1190.40625 655.898438 1191.0625 658.246094 1191.355469 C 660.597656 1191.652344 663.28125 1192.390625 664.210938 1193 C 665.5625 1193.886719 668.191406 1194.058594 677.230469 1193.867188 C 684.707031 1193.707031 688.738281 1193.332031 689.089844 1192.761719 C 689.386719 1192.289062 691.554688 1191.660156 693.914062 1191.367188 C 696.273438 1191.074219 698.59375 1190.363281 699.070312 1189.792969 C 699.542969 1189.21875 700.820312 1188.746094 701.902344 1188.746094 C 702.988281 1188.742188 704.886719 1188.070312 706.125 1187.25 C 707.363281 1186.429688 709.109375 1185.757812 710.007812 1185.753906 C 710.90625 1185.75 712.125 1185.269531 712.714844 1184.679688 C 713.300781 1184.089844 714.992188 1183.382812 716.464844 1183.105469 C 717.941406 1182.828125 719.328125 1182.128906 719.550781 1181.550781 C 719.769531 1180.972656 720.929688 1180.5 722.125 1180.5 C 723.320312 1180.5 725.15625 1179.824219 726.203125 1179 C 727.253906 1178.175781 728.777344 1177.5 729.589844 1177.5 C 730.402344 1177.5 731.457031 1177.027344 731.933594 1176.453125 C 732.414062 1175.878906 733.941406 1175.191406 735.328125 1174.933594 C 736.71875 1174.671875 738.046875 1173.960938 738.277344 1173.355469 C 738.511719 1172.746094 739.53125 1172.25 740.546875 1172.25 C 741.5625 1172.25 742.902344 1171.738281 743.527344 1171.113281 C 744.152344 1170.488281 745.722656 1169.765625 747.019531 1169.507812 C 748.316406 1169.246094 749.554688 1168.578125 749.769531 1168.019531 C 749.984375 1167.457031 750.882812 1166.996094 751.765625 1166.996094 C 752.652344 1166.992188 754.386719 1166.320312 755.625 1165.5 C 756.863281 1164.679688 758.441406 1164.007812 759.132812 1164.003906 C 759.828125 1164 760.882812 1163.507812 761.480469 1162.910156 C 762.078125 1162.3125 763.4375 1161.605469 764.503906 1161.335938 C 765.566406 1161.070312 766.832031 1160.378906 767.3125 1159.800781 C 767.789062 1159.222656 768.773438 1158.75 769.492188 1158.75 C 770.210938 1158.75 771.601562 1158.125 772.585938 1157.363281 C 773.570312 1156.601562 775.300781 1155.75 776.4375 1155.472656 C 777.570312 1155.199219 778.5 1154.667969 778.5 1154.292969 C 778.5 1153.921875 779.488281 1153.402344 780.699219 1153.136719 C 781.90625 1152.871094 783.296875 1152.167969 783.789062 1151.578125 C 784.28125 1150.984375 785.273438 1150.5 785.992188 1150.5 C 786.710938 1150.5 788.15625 1149.824219 789.203125 1149 C 790.253906 1148.175781 791.628906 1147.5 792.261719 1147.5 C 792.894531 1147.5 793.597656 1147.195312 793.828125 1146.824219 C 794.058594 1146.453125 797.707031 1144.394531 801.933594 1142.25 C 806.164062 1140.101562 810.976562 1137.554688 812.625 1136.585938 C 814.273438 1135.613281 816.132812 1134.613281 816.75 1134.355469 C 817.367188 1134.101562 818.382812 1133.570312 819 1133.179688 C 819.617188 1132.789062 821.136719 1131.957031 822.375 1131.328125 C 823.613281 1130.703125 825.976562 1129.375 827.625 1128.382812 C 829.273438 1127.390625 831.382812 1126.230469 832.3125 1125.804688 C 833.242188 1125.382812 834 1124.691406 834 1124.269531 C 834 1123.847656 834.675781 1123.5 835.5 1123.5 C 836.324219 1123.5 837.675781 1122.824219 838.5 1122 C 839.324219 1121.175781 840.453125 1120.5 841.011719 1120.5 C 841.566406 1120.5 842.800781 1119.824219 843.75 1119 C 844.699219 1118.175781 845.898438 1117.5 846.410156 1117.5 C 846.921875 1117.5 847.535156 1116.992188 847.773438 1116.375 C 848.007812 1115.753906 848.835938 1115.25 849.609375 1115.25 C 850.382812 1115.25 851.628906 1114.574219 852.375 1113.75 C 853.121094 1112.925781 854.300781 1112.25 855 1112.25 C 855.699219 1112.25 856.878906 1111.574219 857.625 1110.75 C 858.371094 1109.925781 859.398438 1109.25 859.910156 1109.25 C 860.421875 1109.25 861.035156 1108.742188 861.273438 1108.125 C 861.507812 1107.503906 862.335938 1107 863.109375 1107 C 863.882812 1107 865.128906 1106.324219 865.875 1105.5 C 866.621094 1104.675781 867.695312 1104 868.265625 1104 C 868.832031 1104 869.492188 1103.492188 869.730469 1102.875 C 869.964844 1102.253906 870.628906 1101.75 871.207031 1101.75 C 871.78125 1101.75 872.871094 1101.160156 873.628906 1100.4375 C 875.257812 1098.882812 877.179688 1097.585938 879.738281 1096.304688 C 880.765625 1095.792969 882.160156 1094.867188 882.839844 1094.25 C 885.101562 1092.183594 887.546875 1090.5 888.277344 1090.5 C 888.675781 1090.5 889.535156 1090.007812 890.1875 1089.410156 C 893.957031 1085.949219 894.730469 1085.355469 896.003906 1084.953125 C 896.777344 1084.707031 898.441406 1083.5625 899.707031 1082.40625 C 900.96875 1081.253906 903.933594 1079.027344 906.289062 1077.460938 C 908.648438 1075.898438 911.992188 1073.300781 913.726562 1071.691406 C 915.457031 1070.085938 917.210938 1068.757812 917.625 1068.746094 C 918.285156 1068.730469 922.941406 1064.929688 926.3125 1061.652344 C 926.964844 1061.019531 927.894531 1060.5 928.375 1060.5 C 928.855469 1060.5 929.25 1060.171875 929.25 1059.769531 C 929.25 1059.367188 930.179688 1058.542969 931.3125 1057.933594 C 932.445312 1057.328125 934.726562 1055.601562 936.375 1054.09375 C 942.695312 1048.320312 943.953125 1047.253906 946.5 1045.519531 C 947.945312 1044.539062 949.691406 1043.203125 950.378906 1042.554688 C 973.058594 1021.242188 989.25 1005.300781 989.25 1004.285156 C 989.25 1003.851562 989.757812 1003.5 990.375 1003.5 C 990.992188 1003.5 991.5 1003.246094 991.5 1002.933594 C 991.5 1002.621094 994.734375 998.992188 998.691406 994.871094 C 1006.953125 986.253906 1012.574219 979.925781 1013.558594 978.125 C 1013.933594 977.4375 1014.695312 976.605469 1015.246094 976.273438 C 1015.796875 975.945312 1016.25 975.402344 1016.25 975.074219 C 1016.25 974.742188 1017.894531 972.730469 1019.90625 970.597656 C 1021.917969 968.464844 1024.535156 965.292969 1025.71875 963.546875 C 1026.902344 961.800781 1028.292969 960.105469 1028.808594 959.773438 C 1029.328125 959.445312 1029.75 958.722656 1029.75 958.167969 C 1029.75 957.613281 1030.203125 956.984375 1030.757812 956.773438 C 1031.308594 956.5625 1033.019531 954.492188 1034.558594 952.175781 C 1036.09375 949.859375 1038.167969 947.046875 1039.164062 945.921875 C 1041.972656 942.75 1042.230469 942.402344 1043.261719 940.453125 C 1043.789062 939.445312 1044.429688 938.457031 1044.675781 938.25 C 1045.679688 937.417969 1049.25 931.738281 1049.25 930.976562 C 1049.25 930.527344 1049.757812 929.964844 1050.375 929.726562 C 1050.992188 929.488281 1051.5 928.816406 1051.5 928.226562 C 1051.5 927.640625 1052.023438 926.960938 1052.660156 926.714844 C 1053.300781 926.46875 1054.175781 925.25 1054.609375 924.007812 C 1055.042969 922.765625 1055.703125 921.75 1056.074219 921.75 C 1056.445312 921.75 1056.75 921.296875 1056.75 920.742188 C 1056.75 920.183594 1057.425781 919.121094 1058.25 918.375 C 1059.074219 917.628906 1059.75 916.585938 1059.75 916.0625 C 1059.75 915.535156 1060.171875 914.652344 1060.6875 914.09375 C 1062.460938 912.183594 1064.789062 908.59375 1065.296875 906.988281 C 1065.578125 906.105469 1066.300781 904.976562 1066.902344 904.476562 C 1067.507812 903.976562 1068 903.097656 1068 902.523438 C 1068 901.953125 1069.179688 899.804688 1070.625 897.75 C 1072.070312 895.695312 1073.25 893.660156 1073.25 893.226562 C 1073.25 892.792969 1073.855469 891.523438 1074.59375 890.40625 C 1076.898438 886.917969 1077.746094 885.453125 1078.878906 882.988281 C 1079.484375 881.675781 1080.320312 880.390625 1080.738281 880.132812 C 1081.15625 879.871094 1081.5 879.058594 1081.5 878.320312 C 1081.5 877.582031 1082.175781 876.199219 1083 875.25 C 1083.824219 874.296875 1084.5 872.765625 1084.5 871.839844 C 1084.5 870.914062 1084.976562 869.976562 1085.554688 869.753906 C 1086.132812 869.53125 1086.832031 868.339844 1087.101562 867.101562 C 1087.375 865.867188 1088.082031 864.449219 1088.671875 863.960938 C 1089.265625 863.46875 1089.75 862.304688 1089.75 861.375 C 1089.75 860.445312 1090.246094 859.269531 1090.855469 858.765625 C 1091.464844 858.261719 1092.171875 856.722656 1092.429688 855.351562 C 1092.6875 853.976562 1093.371094 852.671875 1093.949219 852.449219 C 1094.527344 852.226562 1095.003906 851.277344 1095.003906 850.335938 C 1095.007812 849.394531 1095.679688 847.613281 1096.5 846.375 C 1097.320312 845.136719 1097.992188 843.234375 1097.996094 842.140625 C 1097.996094 841.050781 1098.464844 839.980469 1099.03125 839.765625 C 1099.597656 839.546875 1100.28125 838.195312 1100.550781 836.757812 C 1100.820312 835.324219 1101.539062 833.738281 1102.144531 833.234375 C 1102.753906 832.726562 1103.253906 831.429688 1103.253906 830.34375 C 1103.257812 829.261719 1103.929688 827.363281 1104.75 826.125 C 1105.570312 824.886719 1106.242188 822.988281 1106.246094 821.902344 C 1106.246094 820.820312 1106.757812 819.511719 1107.375 819 C 1107.992188 818.484375 1108.503906 817.179688 1108.503906 816.09375 C 1108.507812 815.011719 1109.179688 813.113281 1110 811.875 C 1110.820312 810.636719 1111.492188 808.695312 1111.496094 807.558594 C 1111.496094 806.421875 1112.175781 804.234375 1113 802.695312 C 1113.824219 801.15625 1114.5 798.824219 1114.5 797.511719 C 1114.5 796.199219 1114.878906 795 1115.339844 794.84375 C 1115.800781 794.691406 1116.484375 792.605469 1116.859375 790.207031 C 1117.238281 787.808594 1118.039062 785.351562 1118.648438 784.746094 C 1119.257812 784.132812 1119.75 782.273438 1119.75 780.566406 C 1119.75 778.875 1120.253906 776.933594 1120.871094 776.25 C 1121.488281 775.570312 1122.214844 772.929688 1122.480469 770.382812 C 1122.746094 767.839844 1123.421875 765.375 1123.980469 764.910156 C 1124.597656 764.398438 1125 762.542969 1125 760.199219 C 1125 757.828125 1125.476562 755.652344 1126.230469 754.574219 C 1126.972656 753.515625 1127.605469 750.691406 1127.824219 747.46875 C 1128.023438 744.53125 1128.625 741.617188 1129.164062 741 C 1129.703125 740.378906 1130.386719 736.859375 1130.683594 733.175781 C 1130.984375 729.496094 1131.679688 725.613281 1132.234375 724.550781 C 1132.839844 723.394531 1133.242188 720.140625 1133.246094 716.398438 C 1133.25 711.996094 1133.621094 709.472656 1134.523438 707.773438 C 1135.535156 705.867188 1135.855469 702.765625 1136.085938 692.625 C 1136.277344 684.257812 1136.75 678.746094 1137.460938 676.597656 C 1139.054688 671.769531 1139.109375 281.171875 1137.515625 278.722656 C 1136.945312 277.84375 1136.300781 275.542969 1136.085938 273.605469 C 1135.871094 271.667969 1135.144531 269.535156 1134.472656 268.863281 C 1133.800781 268.191406 1133.25 267.011719 1133.25 266.242188 C 1133.25 265.46875 1132.878906 264.609375 1132.421875 264.328125 C 1131.96875 264.046875 1131.121094 262.675781 1130.539062 261.28125 C 1129.957031 259.890625 1129.148438 258.75 1128.742188 258.75 C 1128.332031 258.75 1128 258.371094 1128 257.910156 C 1128 256.503906 1116.722656 245.910156 1114.023438 244.785156 C 1112.636719 244.203125 1111.5 243.410156 1111.5 243.023438 C 1111.5 242.636719 1110.332031 242.097656 1108.902344 241.832031 C 1107.472656 241.5625 1105.914062 240.871094 1105.433594 240.296875 C 1104.886719 239.636719 1103.0625 239.25 1100.496094 239.25 C 1098.214844 239.25 1095.394531 238.71875 1094.082031 238.035156 C 1092.542969 237.242188 1089.003906 236.695312 1083.804688 236.453125 C 1079.445312 236.25 1075.199219 235.664062 1074.375 235.15625 C 1073.550781 234.648438 1069.519531 234 1065.421875 233.714844 C 1061.324219 233.433594 1057.503906 232.816406 1056.9375 232.34375 C 1056.371094 231.875 1052.4375 231.296875 1048.195312 231.058594 C 1043.320312 230.785156 1040.019531 230.246094 1039.234375 229.59375 C 1038.472656 228.957031 1035.324219 228.414062 1031.058594 228.175781 C 1027.046875 227.953125 1023.503906 227.359375 1022.644531 226.769531 C 1021.753906 226.152344 1019.078125 225.738281 1015.894531 225.722656 C 1012.265625 225.707031 1009.691406 225.246094 1007.625 224.25 C 1005.710938 223.324219 1002.992188 222.792969 1000.105469 222.773438 C 997.253906 222.757812 994.964844 222.316406 993.90625 221.574219 C 992.84375 220.828125 989.773438 220.242188 985.492188 219.964844 C 981.210938 219.6875 978.441406 219.15625 977.90625 218.511719 C 977.375 217.871094 975.445312 217.5 972.65625 217.5 C 969.675781 217.5 967.335938 217.011719 965.445312 216 C 963.59375 215.007812 961.214844 214.5 958.414062 214.5 C 955.699219 214.5 953.871094 214.121094 953.3125 213.445312 C 952.804688 212.839844 950.160156 212.167969 947.03125 211.855469 C 944.058594 211.558594 940.960938 210.851562 940.144531 210.28125 C 939.320312 209.707031 936.820312 209.25 934.492188 209.25 C 931.796875 209.25 929.273438 208.71875 927.375 207.75 C 925.558594 206.824219 922.953125 206.25 920.558594 206.25 C 918.203125 206.25 916.351562 205.847656 915.835938 205.226562 C 915.371094 204.667969 912.988281 204.023438 910.542969 203.804688 C 908.09375 203.582031 905.324219 202.859375 904.378906 202.199219 C 903.4375 201.539062 901.222656 201 899.457031 201 C 897.675781 201 894.996094 200.328125 893.445312 199.5 C 891.753906 198.59375 889.214844 198 887.019531 198 C 884.796875 198 882.957031 197.566406 882.269531 196.875 C 881.625 196.234375 879.792969 195.75 878 195.75 C 876.269531 195.75 873.59375 195.074219 872.054688 194.25 C 870.515625 193.425781 868.015625 192.75 866.5 192.75 C 864.984375 192.75 863.160156 192.222656 862.449219 191.578125 C 861.738281 190.933594 859.265625 190.210938 856.957031 189.972656 C 854.648438 189.734375 852.378906 189.082031 851.914062 188.519531 C 851.402344 187.902344 849.542969 187.496094 847.222656 187.496094 C 844.644531 187.492188 842.632812 186.996094 841.125 186 C 839.886719 185.179688 837.765625 184.507812 836.410156 184.503906 C 835.054688 184.503906 833.15625 183.984375 832.191406 183.351562 C 831.230469 182.71875 828.710938 181.996094 826.601562 181.746094 C 824.488281 181.496094 822.378906 180.832031 821.914062 180.269531 C 821.449219 179.710938 819.925781 179.25 818.53125 179.25 C 817.136719 179.25 814.734375 178.574219 813.195312 177.75 C 811.65625 176.925781 809.167969 176.25 807.664062 176.25 C 806.164062 176.25 804.550781 175.785156 804.078125 175.21875 C 803.609375 174.652344 801.625 173.964844 799.675781 173.695312 C 797.722656 173.421875 795.46875 172.703125 794.667969 172.101562 C 793.871094 171.496094 792.039062 171 790.605469 171 C 789.167969 171 787.378906 170.445312 786.628906 169.765625 C 785.878906 169.085938 783.582031 168.371094 781.519531 168.171875 C 779.460938 167.972656 777.390625 167.347656 776.921875 166.78125 C 776.449219 166.214844 775.003906 165.75 773.710938 165.75 C 772.414062 165.75 770.09375 165.074219 768.554688 164.25 C 767.015625 163.425781 764.851562 162.75 763.75 162.75 C 762.644531 162.75 761.140625 162.203125 760.402344 161.535156 C 759.664062 160.867188 757.535156 160.148438 755.667969 159.9375 C 753.800781 159.730469 751.890625 159.09375 751.421875 158.527344 C 750.949219 157.960938 749.675781 157.5 748.585938 157.5 C 747.496094 157.5 745.34375 156.824219 743.804688 156 C 742.265625 155.175781 739.863281 154.5 738.46875 154.5 C 737.074219 154.5 735.527344 154.011719 735.03125 153.410156 C 734.535156 152.8125 732.648438 152.101562 730.835938 151.828125 C 729.027344 151.558594 727.160156 150.867188 726.683594 150.292969 C 726.207031 149.71875 724.617188 149.25 723.15625 149.25 C 721.691406 149.25 719.917969 148.730469 719.214844 148.09375 C 718.511719 147.457031 716.628906 146.730469 715.03125 146.476562 C 713.433594 146.222656 711.914062 145.695312 711.65625 145.304688 C 711.398438 144.914062 709.570312 144.289062 707.589844 143.917969 C 705.609375 143.550781 703.429688 142.742188 702.75 142.125 C 702.066406 141.503906 700.546875 141 699.375 141 C 698.203125 141 696.640625 140.453125 695.902344 139.785156 C 695.164062 139.117188 692.945312 138.394531 690.96875 138.179688 C 688.992188 137.964844 686.707031 137.328125 685.894531 136.769531 C 683.808594 135.332031 668.019531 135.335938 666.582031 136.773438 M 669.75 309.738281 C 669.75 310.148438 668.570312 310.972656 667.125 311.578125 C 665.679688 312.179688 664.5 313.027344 664.5 313.460938 C 664.5 313.894531 664.175781 314.25 663.78125 314.25 C 662.863281 314.25 642.75 334.398438 642.75 335.316406 C 642.75 335.691406 642.242188 336 641.625 336 C 641.007812 336 640.488281 336.421875 640.476562 336.9375 C 640.464844 337.453125 639.28125 339.039062 637.851562 340.464844 C 636.421875 341.886719 635.25 343.292969 635.25 343.589844 C 635.25 344.179688 631.199219 348.917969 626.8125 353.457031 C 625.265625 355.058594 624 356.679688 624 357.058594 C 624 357.4375 623.71875 357.75 623.375 357.75 C 623.03125 357.75 621.640625 359.464844 620.285156 361.558594 C 618.925781 363.652344 617.351562 365.546875 616.785156 365.765625 C 616.214844 365.980469 615.75 366.449219 615.75 366.804688 C 615.75 367.160156 614.605469 368.59375 613.210938 369.988281 C 611.8125 371.386719 610.453125 373.214844 610.1875 374.050781 C 609.921875 374.890625 608.027344 377.351562 605.976562 379.523438 C 603.925781 381.695312 602.25 383.578125 602.25 383.703125 C 602.25 384.03125 599.039062 388.71875 597.917969 390.027344 C 597.402344 390.628906 596.160156 392.046875 595.164062 393.171875 C 594.167969 394.296875 592.09375 397.113281 590.558594 399.425781 C 589.019531 401.742188 587.308594 403.8125 586.757812 404.023438 C 586.203125 404.238281 585.75 404.863281 585.75 405.417969 C 585.75 405.972656 585.328125 406.695312 584.808594 407.023438 C 584.292969 407.355469 582.859375 409.144531 581.625 411 C 580.390625 412.855469 578.957031 414.644531 578.441406 414.976562 C 577.921875 415.304688 577.5 416.0625 577.5 416.664062 C 577.5 417.261719 576.992188 417.75 576.375 417.75 C 575.757812 417.75 575.25 418.226562 575.25 418.808594 C 575.25 419.835938 569.976562 427.113281 568.132812 428.628906 C 567.628906 429.042969 567.003906 430.0625 566.738281 430.894531 C 566.472656 431.726562 565.328125 433.445312 564.191406 434.710938 C 561.496094 437.71875 558.75 441.53125 558.746094 442.28125 C 558.746094 442.609375 557.5625 444.160156 556.121094 445.730469 C 554.679688 447.300781 553.5 448.871094 553.5 449.222656 C 553.5 449.578125 552.234375 451.515625 550.6875 453.53125 C 547.3125 457.933594 546.230469 459.582031 545.265625 461.8125 C 544.863281 462.738281 544.183594 463.5 543.75 463.5 C 543.316406 463.5 542.640625 464.34375 542.25 465.375 C 541.859375 466.40625 541.226562 467.25 540.851562 467.25 C 540.472656 467.25 539.957031 468.074219 539.703125 469.082031 C 539.449219 470.089844 538.230469 472.023438 536.992188 473.378906 C 535.753906 474.734375 534.53125 476.523438 534.277344 477.359375 C 533.820312 478.835938 532.742188 480.230469 530.0625 482.816406 C 529.339844 483.511719 528.75 484.632812 528.75 485.300781 C 528.75 485.96875 528.074219 487.128906 527.25 487.875 C 526.425781 488.621094 525.75 489.6875 525.75 490.242188 C 525.75 490.796875 525.417969 491.25 525.007812 491.25 C 524.601562 491.25 523.777344 492.429688 523.171875 493.875 C 522.570312 495.320312 521.722656 496.5 521.289062 496.5 C 520.855469 496.5 520.5 497.015625 520.5 497.648438 C 520.5 498.28125 520.015625 498.984375 519.421875 499.210938 C 518.828125 499.4375 518.121094 500.632812 517.851562 501.863281 C 517.578125 503.09375 516.882812 504.285156 516.304688 504.507812 C 515.726562 504.726562 515.25 505.304688 515.25 505.789062 C 515.25 506.273438 514.574219 507.246094 513.75 507.949219 C 512.925781 508.65625 512.25 509.894531 512.25 510.707031 C 512.25 511.515625 511.828125 512.445312 511.3125 512.773438 C 509.871094 513.695312 507 518.050781 507 519.316406 C 507 519.9375 506.324219 520.808594 505.5 521.25 C 504.675781 521.691406 504 522.550781 504 523.160156 C 504 523.765625 502.820312 525.945312 501.375 528 C 499.929688 530.054688 498.75 532.253906 498.75 532.890625 C 498.75 533.527344 498.265625 534.234375 497.671875 534.460938 C 497.078125 534.6875 496.375 535.859375 496.113281 537.058594 C 495.847656 538.257812 495.234375 539.496094 494.746094 539.808594 C 494.257812 540.121094 492.894531 542.316406 491.714844 544.6875 C 490.535156 547.058594 489.300781 549 488.96875 549 C 488.640625 549 488.140625 550.035156 487.863281 551.300781 C 487.585938 552.566406 486.882812 553.785156 486.304688 554.007812 C 485.726562 554.226562 485.25 555.164062 485.25 556.089844 C 485.25 557.011719 484.574219 558.378906 483.75 559.125 C 482.925781 559.871094 482.25 561.0625 482.25 561.773438 C 482.25 562.484375 481.765625 563.46875 481.171875 563.960938 C 480.582031 564.453125 479.886719 565.816406 479.628906 566.988281 C 479.371094 568.164062 478.671875 569.308594 478.078125 569.539062 C 477.484375 569.765625 477 570.59375 477 571.375 C 477 572.15625 476.324219 573.65625 475.5 574.703125 C 474.675781 575.753906 474 577.109375 474 577.714844 C 474 578.320312 473.492188 579.234375 472.875 579.75 C 472.257812 580.261719 471.75 581.273438 471.75 581.992188 C 471.75 582.710938 471.125 584.101562 470.363281 585.085938 C 469.601562 586.070312 468.753906 587.800781 468.476562 588.9375 C 468.199219 590.070312 467.65625 591 467.269531 591 C 466.882812 591 466.339844 592.207031 466.0625 593.683594 C 465.789062 595.160156 465.097656 596.546875 464.53125 596.765625 C 463.964844 596.984375 463.5 598.085938 463.5 599.214844 C 463.5 600.34375 462.824219 601.878906 462 602.625 C 461.175781 603.371094 460.5 604.90625 460.5 606.035156 C 460.5 607.164062 460.042969 608.265625 459.480469 608.480469 C 458.921875 608.695312 458.25 610.207031 457.988281 611.835938 C 457.726562 613.46875 457.003906 615.226562 456.382812 615.746094 C 455.757812 616.261719 455.25 617.613281 455.25 618.75 C 455.25 619.886719 454.742188 621.238281 454.117188 621.753906 C 453.496094 622.273438 452.773438 624.023438 452.515625 625.648438 C 452.253906 627.269531 451.640625 629.003906 451.148438 629.496094 C 450.65625 629.984375 450.042969 631.691406 449.785156 633.285156 C 449.527344 634.882812 448.792969 636.761719 448.15625 637.464844 C 447.519531 638.167969 447 639.703125 447 640.875 C 447 642.046875 446.496094 643.5625 445.878906 644.246094 C 445.261719 644.925781 444.542969 647.148438 444.277344 649.179688 C 444.011719 651.210938 443.378906 653.382812 442.867188 654 C 442.359375 654.617188 441.773438 656.707031 441.566406 658.644531 C 441.363281 660.578125 440.644531 662.710938 439.972656 663.382812 C 439.148438 664.207031 438.75 665.910156 438.75 668.585938 C 438.75 671.019531 438.355469 672.894531 437.734375 673.410156 C 437.171875 673.875 436.507812 676.488281 436.25 679.230469 C 435.996094 681.96875 435.273438 684.992188 434.644531 685.953125 C 433.902344 687.078125 433.5 689.496094 433.496094 692.785156 C 433.492188 696.003906 433.050781 698.703125 432.289062 700.125 C 431.492188 701.625 430.910156 705.5 430.546875 711.75 C 430.25 716.90625 429.609375 721.863281 429.128906 722.761719 C 427.933594 724.988281 427.890625 771.171875 429.078125 773.394531 C 429.53125 774.242188 430.175781 778.523438 430.511719 782.90625 C 430.84375 787.289062 431.636719 792.226562 432.277344 793.875 C 432.914062 795.523438 433.449219 798.773438 433.46875 801.097656 C 433.488281 803.847656 433.882812 805.632812 434.59375 806.226562 C 435.199219 806.726562 435.914062 809.121094 436.191406 811.554688 C 436.464844 813.984375 437.152344 816.359375 437.71875 816.828125 C 438.285156 817.300781 438.753906 819.074219 438.753906 820.777344 C 438.757812 822.605469 439.371094 824.796875 440.25 826.125 C 441.070312 827.363281 441.742188 829.429688 441.746094 830.722656 C 441.746094 832.011719 442.214844 833.453125 442.78125 833.921875 C 443.347656 834.394531 444.019531 836.078125 444.273438 837.667969 C 444.527344 839.253906 445.246094 840.976562 445.867188 841.496094 C 446.492188 842.011719 447 843.363281 447 844.5 C 447 845.636719 447.507812 846.988281 448.132812 847.503906 C 448.753906 848.023438 449.46875 849.730469 449.71875 851.300781 C 449.972656 852.871094 450.601562 854.320312 451.117188 854.519531 C 451.636719 854.71875 452.28125 856.054688 452.550781 857.492188 C 452.820312 858.929688 453.539062 860.296875 454.144531 860.527344 C 454.753906 860.761719 455.25 861.816406 455.25 862.875 C 455.25 863.933594 455.746094 864.988281 456.355469 865.222656 C 456.960938 865.453125 457.675781 866.792969 457.9375 868.199219 C 458.203125 869.601562 458.691406 870.75 459.027344 870.75 C 459.367188 870.75 460.171875 871.761719 460.820312 873 L 463.179688 877.5 C 463.828125 878.738281 464.644531 879.75 464.996094 879.75 C 465.34375 879.75 465.851562 880.761719 466.125 882 C 466.398438 883.238281 466.9375 884.25 467.328125 884.25 C 467.71875 884.25 468.359375 885.09375 468.75 886.125 C 469.140625 887.15625 469.800781 888 470.21875 888 C 470.632812 888 471.191406 888.871094 471.457031 889.9375 C 471.726562 891.007812 473.082031 893.117188 474.46875 894.625 C 475.855469 896.136719 476.996094 897.746094 476.996094 898.195312 C 476.996094 898.648438 477.675781 899.628906 478.5 900.375 C 479.324219 901.121094 480 902.011719 480 902.351562 C 480 902.691406 481.773438 904.777344 483.9375 906.988281 C 486.101562 909.203125 489.730469 913.167969 492 915.800781 C 497.25 921.894531 502.390625 927.03125 508.457031 932.25 C 511.097656 934.519531 514.519531 937.640625 516.066406 939.1875 C 517.617188 940.734375 519.210938 942 519.609375 942 C 520.011719 942 520.535156 942.507812 520.773438 943.125 C 521.007812 943.742188 521.71875 944.25 522.351562 944.25 C 522.984375 944.25 524.09375 944.839844 524.820312 945.5625 C 527.675781 948.398438 532.960938 952.34375 534.5625 952.832031 C 535.488281 953.117188 536.25 953.675781 536.25 954.070312 C 536.25 954.464844 537.09375 955.109375 538.125 955.5 C 539.15625 955.890625 540 956.558594 540 956.980469 C 540 957.402344 540.660156 957.75 541.472656 957.75 C 542.28125 957.75 543.546875 958.355469 544.285156 959.097656 C 545.019531 959.835938 546.46875 960.847656 547.5 961.339844 C 548.53125 961.835938 549.964844 962.578125 550.6875 962.996094 L 553.3125 964.503906 C 554.035156 964.921875 555.46875 965.671875 556.5 966.175781 C 557.53125 966.679688 558.644531 967.523438 558.976562 968.046875 C 559.304688 968.570312 560.410156 969 561.4375 969 C 562.460938 969 563.488281 969.496094 563.722656 970.105469 C 563.953125 970.710938 565.320312 971.429688 566.757812 971.699219 C 568.191406 971.96875 569.546875 972.652344 569.765625 973.21875 C 569.984375 973.785156 570.882812 974.253906 571.769531 974.253906 C 572.652344 974.257812 574.386719 974.929688 575.625 975.75 C 576.863281 976.570312 578.609375 977.242188 579.507812 977.246094 C 580.40625 977.246094 581.671875 977.777344 582.3125 978.421875 C 582.957031 979.0625 584.664062 979.785156 586.105469 980.015625 C 587.546875 980.25 589.109375 980.90625 589.578125 981.472656 C 590.050781 982.039062 591.488281 982.5 592.777344 982.503906 C 594.070312 982.503906 596.230469 983.179688 597.582031 984.003906 C 598.929688 984.828125 601.132812 985.5 602.476562 985.5 C 603.820312 985.5 605.582031 985.960938 606.394531 986.523438 C 607.207031 987.082031 609.5625 987.785156 611.625 988.078125 C 613.6875 988.375 616.121094 989.097656 617.035156 989.683594 C 617.949219 990.269531 620.398438 990.75 622.476562 990.75 C 624.824219 990.75 627.316406 991.320312 629.054688 992.25 C 631.207031 993.402344 633.285156 993.75 638.074219 993.75 C 641.910156 993.75 645.332031 994.183594 646.992188 994.875 C 649.214844 995.804688 654.351562 996 676.441406 996 C 696.132812 996 703.433594 995.765625 704.09375 995.109375 C 704.621094 994.582031 708.445312 994.042969 713.429688 993.796875 C 719.761719 993.480469 722.339844 993.046875 723.730469 992.0625 C 724.941406 991.203125 727.019531 990.742188 729.730469 990.726562 C 732.101562 990.710938 734.472656 990.25 735.269531 989.644531 C 736.039062 989.0625 738.476562 988.359375 740.6875 988.085938 C 742.898438 987.808594 745.09375 987.113281 745.570312 986.542969 C 746.046875 985.964844 747.792969 985.5 749.46875 985.5 C 751.1875 985.5 753.078125 984.984375 753.820312 984.3125 C 754.542969 983.65625 756.59375 982.933594 758.378906 982.699219 C 760.164062 982.46875 761.875 981.863281 762.175781 981.351562 C 762.480469 980.839844 764.222656 980.199219 766.046875 979.925781 C 767.878906 979.652344 769.554688 978.941406 769.785156 978.339844 C 770.015625 977.738281 771.089844 977.25 772.171875 977.25 C 773.253906 977.25 774.996094 976.574219 776.046875 975.75 C 777.09375 974.925781 778.539062 974.25 779.257812 974.25 C 779.976562 974.25 780.984375 973.742188 781.5 973.125 C 782.015625 972.507812 782.878906 972 783.425781 972 C 784.433594 972 790.773438 968.828125 792.300781 967.5625 C 792.757812 967.183594 794.035156 966.644531 795.136719 966.367188 C 796.238281 966.089844 797.324219 965.390625 797.546875 964.808594 C 797.769531 964.226562 798.585938 963.75 799.359375 963.75 C 800.132812 963.75 801.378906 963.074219 802.125 962.25 C 802.871094 961.425781 803.894531 960.75 804.398438 960.75 C 804.902344 960.75 805.734375 960.242188 806.25 959.625 C 806.765625 959.007812 807.828125 958.5 808.617188 958.5 C 809.402344 958.5 810.246094 957.980469 810.488281 957.347656 C 810.734375 956.710938 811.988281 955.707031 813.277344 955.113281 C 816.339844 953.699219 817.878906 952.644531 821.164062 949.691406 C 822.65625 948.351562 824.292969 947.253906 824.804688 947.253906 C 825.316406 947.25 826.667969 946.289062 827.804688 945.109375 C 830.230469 942.601562 838.28125 936 838.914062 936 C 839.15625 936 840.464844 934.820312 841.828125 933.375 C 843.1875 931.929688 844.683594 930.75 845.152344 930.75 C 845.617188 930.75 846 930.425781 846 930.035156 C 846 929.105469 849.605469 925.5 850.535156 925.5 C 850.925781 925.5 851.25 925.1875 851.25 924.804688 C 851.25 924.421875 852.851562 922.480469 854.8125 920.484375 C 858.539062 916.6875 861.105469 913.691406 863.625 910.199219 C 864.921875 908.398438 868.152344 904.652344 871.769531 900.75 C 872.339844 900.132812 873.035156 898.898438 873.308594 898.007812 C 873.582031 897.117188 874.300781 896.199219 874.902344 895.96875 C 875.507812 895.738281 876 895.03125 876 894.398438 C 876 893.765625 876.304688 893.25 876.675781 893.25 C 877.339844 893.25 880.296875 888.898438 881.394531 886.3125 C 881.703125 885.589844 882.265625 885 882.652344 885 C 883.039062 885 883.734375 884.074219 884.199219 882.9375 C 885.339844 880.164062 886.75 877.796875 888.253906 876.132812 C 888.9375 875.375 889.5 874.234375 889.5 873.59375 C 889.5 872.957031 889.984375 872.03125 890.578125 871.539062 C 891.167969 871.046875 891.863281 869.683594 892.121094 868.511719 C 892.378906 867.335938 893.078125 866.1875 893.671875 865.960938 C 894.265625 865.734375 894.75 864.90625 894.75 864.125 C 894.75 863.34375 895.425781 861.84375 896.25 860.796875 C 897.074219 859.746094 897.75 858.171875 897.75 857.296875 C 897.75 856.417969 898.257812 855.507812 898.875 855.273438 C 899.492188 855.035156 900 854.03125 900 853.042969 C 900 852.058594 900.675781 850.574219 901.5 849.75 C 902.324219 848.925781 903 847.375 903 846.304688 C 903 845.238281 903.675781 843.503906 904.5 842.453125 C 905.324219 841.40625 906 839.597656 906 838.4375 C 906 837.273438 906.457031 836.054688 907.015625 835.726562 C 907.574219 835.394531 908.226562 833.617188 908.464844 831.777344 C 908.703125 829.933594 909.429688 828.042969 910.074219 827.570312 C 910.839844 827.007812 911.25 825.53125 911.25 823.320312 C 911.25 821.324219 911.683594 819.574219 912.304688 819.058594 C 912.886719 818.578125 913.59375 816.1875 913.875 813.75 C 914.15625 811.3125 914.863281 808.921875 915.445312 808.441406 C 916.125 807.878906 916.5 806.058594 916.5 803.335938 C 916.5 800.535156 917.007812 798.15625 918 796.304688 C 919.199219 794.066406 919.5 792.074219 919.5 786.355469 C 919.5 781.695312 919.890625 778.265625 920.625 776.507812 C 922.089844 773 922.300781 729.167969 920.863281 726.511719 C 920.375 725.613281 919.785156 720.683594 919.550781 715.558594 C 919.257812 709.1875 918.832031 706.148438 918.203125 705.941406 C 917.257812 705.628906 904.5 718.074219 904.5 719.3125 C 904.5 719.691406 904.171875 720 903.773438 720 C 903.375 720 902.613281 720.816406 902.085938 721.8125 C 901.25 723.386719 895.320312 730.058594 885.5625 740.394531 C 884.015625 742.03125 882.75 743.683594 882.75 744.0625 C 882.75 744.441406 882.496094 744.75 882.1875 744.753906 C 881.878906 744.753906 879.945312 746.863281 877.894531 749.441406 C 875.84375 752.015625 872.386719 755.867188 870.207031 758 C 868.03125 760.128906 866.25 762.089844 866.25 762.359375 C 866.25 762.628906 865.132812 763.925781 863.773438 765.238281 C 862.410156 766.550781 860.488281 768.804688 859.5 770.25 C 858.511719 771.695312 856.589844 773.949219 855.226562 775.261719 C 853.863281 776.574219 852.75 777.804688 852.75 777.996094 C 852.75 778.191406 850.304688 780.882812 847.3125 783.984375 C 844.320312 787.085938 841.199219 790.496094 840.375 791.5625 C 837.070312 795.832031 833.367188 800.015625 828.1875 805.328125 C 825.195312 808.394531 822.75 811.125 822.75 811.394531 C 822.75 811.664062 821.613281 812.929688 820.226562 814.203125 C 818.839844 815.476562 817.574219 816.859375 817.414062 817.28125 C 816.992188 818.386719 810.308594 826.082031 805.3125 831.207031 C 802.941406 833.640625 801 835.9375 801 836.316406 C 801 836.691406 800.734375 837 800.410156 837 C 800.085938 837 798.753906 838.390625 797.445312 840.089844 C 795.140625 843.085938 789.195312 849.746094 780.75 858.789062 C 775.746094 864.144531 775.292969 864.667969 770.871094 870.179688 C 768.941406 872.582031 765.648438 876.253906 763.558594 878.335938 C 761.464844 880.417969 759.75 882.433594 759.75 882.8125 C 759.75 883.191406 759.242188 883.5 758.625 883.5 C 758.007812 883.5 757.5 883.925781 757.5 884.441406 C 757.5 884.960938 756.320312 886.46875 754.875 887.792969 C 753.429688 889.121094 752.25 890.414062 752.25 890.671875 C 752.25 891.632812 743.703125 900 742.722656 900 C 742.160156 900 741.511719 900.496094 741.277344 901.105469 C 741.046875 901.710938 739.730469 902.421875 738.355469 902.679688 C 736.980469 902.9375 735.671875 903.621094 735.449219 904.199219 C 735.140625 905.007812 733.222656 905.25 727.082031 905.25 C 719.421875 905.25 719.03125 905.171875 716.933594 903.191406 C 715.734375 902.058594 714.75 900.742188 714.75 900.269531 C 714.75 899.796875 714.242188 899.214844 713.625 898.980469 C 712.980469 898.730469 712.5 897.613281 712.5 896.367188 C 712.5 895.164062 713.007812 893.765625 713.625 893.25 C 714.242188 892.734375 714.75 891.683594 714.75 890.910156 C 714.75 890.132812 715.425781 888.824219 716.25 888 C 717.074219 887.175781 717.75 886.179688 717.75 885.789062 C 717.75 885.394531 718.175781 884.804688 718.699219 884.476562 C 719.222656 884.144531 720.589844 882.695312 721.734375 881.25 C 726.539062 875.207031 728.90625 872.515625 734.0625 867.257812 C 737.054688 864.207031 739.5 861.550781 739.5 861.355469 C 739.5 861.160156 740.089844 860.378906 740.8125 859.617188 C 741.535156 858.855469 743.304688 856.757812 744.75 854.953125 C 746.195312 853.144531 749.316406 849.6875 751.6875 847.269531 C 754.058594 844.847656 756 842.742188 756 842.585938 C 756 842.429688 757.179688 841.117188 758.625 839.675781 C 760.070312 838.230469 761.25 836.824219 761.25 836.542969 C 761.25 835.789062 767.464844 828.652344 774.328125 821.523438 C 781.882812 813.675781 782.453125 813.042969 783.375 811.425781 C 784.125 810.105469 791.410156 801.894531 796.6875 796.417969 C 798.234375 794.8125 799.5 793.328125 799.5 793.125 C 799.5 792.917969 800.089844 792.097656 800.8125 791.296875 C 801.535156 790.496094 803.136719 788.59375 804.375 787.066406 C 805.613281 785.542969 808.734375 782.105469 811.3125 779.433594 C 813.890625 776.761719 816 774.398438 816 774.183594 C 816 773.96875 816.453125 773.414062 817.003906 772.957031 C 817.554688 772.5 820.042969 769.59375 822.53125 766.5 C 825.023438 763.40625 829.464844 758.382812 832.40625 755.335938 C 835.34375 752.289062 837.75 749.675781 837.75 749.523438 C 837.75 749.375 838.339844 748.628906 839.0625 747.867188 C 839.785156 747.105469 841.554688 745.007812 843 743.199219 C 844.445312 741.394531 846.890625 738.640625 848.4375 737.082031 C 849.984375 735.523438 851.25 734.082031 851.25 733.875 C 851.25 733.667969 852.371094 732.402344 853.742188 731.0625 C 855.113281 729.722656 858.40625 725.929688 861.054688 722.632812 C 863.707031 719.339844 868.152344 714.335938 870.9375 711.515625 C 873.722656 708.695312 876 706.074219 876 705.691406 C 876 705.3125 876.269531 705 876.597656 705 C 876.921875 705 878.417969 703.398438 879.914062 701.4375 C 882.871094 697.574219 884.75 695.410156 892.132812 687.375 C 894.785156 684.488281 898.566406 680.101562 900.53125 677.625 C 902.496094 675.148438 906.390625 670.8125 909.179688 667.984375 C 911.96875 665.15625 914.25 662.722656 914.25 662.570312 C 914.25 662.417969 915.261719 661.191406 916.5 659.835938 C 917.738281 658.484375 920.355469 655.351562 922.3125 652.875 C 924.273438 650.402344 927.5625 646.632812 929.625 644.496094 C 934.964844 638.972656 937.441406 636.195312 941.222656 631.5 C 943.046875 629.230469 945.65625 626.277344 947.019531 624.9375 C 948.382812 623.601562 949.5 622.363281 949.5 622.195312 C 949.5 622.027344 951.863281 619.464844 954.75 616.5 C 957.636719 613.535156 960 610.9375 960 610.722656 C 960 610.027344 966.207031 602.730469 970.28125 598.640625 C 972.464844 596.449219 974.25 594.335938 974.25 593.953125 C 974.25 593.566406 974.757812 593.25 975.375 593.25 C 975.992188 593.25 976.5 592.761719 976.5 592.164062 C 976.5 591.5625 976.933594 590.804688 977.464844 590.476562 C 977.996094 590.144531 980.53125 587.28125 983.097656 584.113281 C 985.664062 580.945312 990.039062 576.039062 992.820312 573.214844 C 998.046875 567.910156 1000.808594 564.710938 1002.75 561.730469 C 1003.367188 560.78125 1004.382812 559.4375 1005 558.742188 C 1006.855469 556.664062 1009.5 551.433594 1009.5 549.84375 C 1009.5 549.027344 1010.007812 547.851562 1010.625 547.230469 C 1012.226562 545.628906 1012.207031 528.292969 1010.601562 526.167969 C 1009.996094 525.367188 1009.5 523.980469 1009.5 523.082031 C 1009.5 522.1875 1008.824219 520.59375 1008 519.546875 C 1007.175781 518.496094 1006.5 517.289062 1006.5 516.859375 C 1006.5 516.007812 998.601562 507.828125 994.675781 504.617188 C 993.328125 503.515625 991.246094 502.398438 990.050781 502.136719 C 988.855469 501.875 987.691406 501.171875 987.460938 500.578125 C 987.195312 499.882812 985.914062 499.488281 983.835938 499.46875 C 982.070312 499.449219 979.273438 498.949219 977.625 498.355469 C 975.976562 497.757812 973.613281 497.273438 972.375 497.273438 C 971.136719 497.273438 968.773438 497.757812 967.125 498.355469 C 965.476562 498.949219 963.070312 499.449219 961.777344 499.46875 C 960.488281 499.484375 959.015625 500.007812 958.5 500.625 C 957.988281 501.242188 957 501.75 956.3125 501.75 C 955.101562 501.75 954.078125 502.402344 949.511719 506.0625 C 948.355469 506.992188 947.035156 507.75 946.578125 507.75 C 946.125 507.75 945.75 508.238281 945.75 508.835938 C 945.75 509.4375 945.273438 510.195312 944.691406 510.523438 C 944.109375 510.855469 941.886719 513.316406 939.746094 515.996094 C 937.609375 518.675781 934.878906 521.742188 933.679688 522.8125 C 932.480469 523.882812 931.5 524.992188 931.5 525.28125 C 931.5 525.566406 930.539062 526.742188 929.363281 527.890625 C 928.1875 529.039062 926.921875 530.515625 926.550781 531.175781 C 925.714844 532.65625 919.40625 539.964844 915.375 544.121094 C 911.105469 548.519531 908.140625 551.988281 906.144531 554.914062 C 905.191406 556.308594 903.246094 558.671875 901.824219 560.164062 C 894.796875 567.535156 891 571.703125 891 572.042969 C 891 572.664062 884.859375 579.859375 881.199219 583.527344 C 879.3125 585.414062 877.554688 587.53125 877.285156 588.230469 C 877.015625 588.929688 876.507812 589.5 876.152344 589.5 C 875.796875 589.5 874.355469 591.105469 872.957031 593.0625 C 870.15625 596.976562 868.726562 598.644531 862.308594 605.507812 C 856.644531 611.566406 856.386719 611.867188 853.820312 615.359375 C 852.613281 617.003906 850.023438 619.980469 848.0625 621.980469 C 846.105469 623.976562 844.5 625.742188 844.5 625.90625 C 844.5 626.066406 843.320312 627.382812 841.875 628.824219 C 840.429688 630.269531 839.25 631.667969 839.25 631.933594 C 839.25 632.726562 833.234375 639.710938 827.8125 645.222656 C 825.027344 648.050781 822.75 650.675781 822.75 651.058594 C 822.75 651.4375 822.484375 651.75 822.160156 651.75 C 821.835938 651.75 820.484375 653.183594 819.160156 654.9375 C 815.304688 660.03125 812.152344 663.710938 808.035156 667.914062 C 805.925781 670.070312 802.214844 674.316406 799.796875 677.347656 C 797.378906 680.378906 794.128906 684.171875 792.574219 685.769531 C 791.023438 687.371094 789.75 688.976562 789.75 689.339844 C 789.75 689.703125 789.242188 690 788.625 690 C 788.007812 690 787.5 690.382812 787.5 690.847656 C 787.5 691.316406 786.320312 692.8125 784.875 694.175781 C 783.429688 695.535156 782.25 696.878906 782.25 697.160156 C 782.25 697.894531 776.519531 704.660156 771.9375 709.332031 C 769.773438 711.542969 768 713.664062 768 714.050781 C 768 714.433594 767.492188 714.75 766.875 714.75 C 766.257812 714.75 765.75 715.125 765.75 715.582031 C 765.75 716.851562 758.84375 725.078125 750.9375 733.226562 C 748.773438 735.457031 746.996094 737.53125 746.992188 737.828125 C 746.972656 738.699219 744.035156 742.179688 738.1875 748.253906 C 735.195312 751.363281 732.75 754.207031 732.75 754.578125 C 732.75 754.945312 732.242188 755.25 731.625 755.25 C 731.007812 755.25 730.5 755.738281 730.5 756.335938 C 730.5 756.9375 730.050781 757.695312 729.496094 758.023438 C 728.945312 758.355469 728.183594 759.179688 727.808594 759.859375 C 726.808594 761.664062 722.421875 766.824219 718.035156 771.363281 C 715.925781 773.546875 712.222656 777.820312 709.8125 780.855469 C 705.492188 786.300781 704.511719 787.402344 696.371094 795.953125 C 694.105469 798.335938 692.25 800.445312 692.25 800.640625 C 692.25 800.839844 691.660156 801.605469 690.9375 802.34375 C 690.214844 803.085938 688.949219 804.640625 688.125 805.804688 C 687.300781 806.96875 684.179688 810.449219 681.1875 813.539062 C 678.199219 816.628906 675.75 819.382812 675.75 819.660156 C 675.75 819.9375 675.160156 820.6875 674.4375 821.324219 C 673.714844 821.960938 671.535156 824.34375 669.59375 826.617188 C 667.648438 828.894531 664.613281 831.738281 662.84375 832.9375 C 661.074219 834.140625 659.355469 835.542969 659.023438 836.058594 C 658.695312 836.578125 657.554688 837 656.488281 837 C 655.425781 837 653.410156 837.707031 652.011719 838.570312 C 649.78125 839.949219 648.546875 840.109375 641.859375 839.882812 C 636.742188 839.710938 634.148438 839.324219 633.945312 838.710938 C 633.777344 838.210938 632.457031 837.574219 631.011719 837.304688 C 629.5625 837.035156 628.203125 836.347656 627.984375 835.78125 C 627.769531 835.214844 626.785156 834.75 625.800781 834.75 C 624.816406 834.75 623.589844 834.074219 623.078125 833.25 C 622.5625 832.425781 621.90625 831.75 621.621094 831.75 C 621.335938 831.75 619.238281 829.980469 616.960938 827.8125 C 614.6875 825.648438 611.878906 823.078125 610.722656 822.105469 C 603.230469 815.78125 523.277344 736.742188 520.3125 732.722656 C 519.589844 731.746094 519 730.421875 519 729.777344 C 519 729.136719 518.324219 728.191406 517.5 727.675781 C 516.609375 727.117188 516 725.925781 516 724.742188 C 516 723.640625 515.417969 722.101562 514.710938 721.316406 C 513.605469 720.097656 513.429688 718.3125 513.492188 708.964844 C 513.554688 699.71875 513.753906 697.933594 514.785156 697.355469 C 515.453125 696.980469 516 695.734375 516 694.578125 C 516 693.425781 516.675781 691.871094 517.5 691.125 C 518.324219 690.378906 519 689.300781 519 688.726562 C 519 687.117188 528.1875 678.171875 530.414062 677.613281 C 531.5 677.339844 532.574219 676.640625 532.796875 676.058594 C 533.019531 675.476562 534.089844 675 535.171875 675 C 536.253906 675 537.996094 674.324219 539.046875 673.5 C 540.726562 672.179688 542.082031 672 550.414062 672.003906 C 558.59375 672.007812 560.179688 672.210938 562.125 673.5 C 563.363281 674.320312 565.09375 674.992188 565.972656 674.996094 C 566.847656 674.996094 567.976562 675.492188 568.476562 676.097656 C 568.976562 676.699219 570.109375 677.421875 570.992188 677.703125 C 574.058594 678.675781 577.15625 681.503906 599.839844 704.0625 C 612.386719 716.542969 622.957031 726.75 623.328125 726.75 C 623.699219 726.75 624 727.234375 624 727.824219 C 624 728.414062 624.675781 729.113281 625.5 729.375 C 626.324219 729.636719 627 730.335938 627 730.925781 C 627 731.515625 627.335938 732 627.742188 732 C 628.152344 732 632.289062 735.679688 636.929688 740.179688 C 641.574219 744.679688 647.511719 750.332031 650.117188 752.742188 C 652.726562 755.152344 659.078125 761.261719 664.230469 766.3125 C 669.382812 771.367188 673.871094 775.5 674.207031 775.5 C 674.542969 775.5 676.125 773.898438 677.71875 771.9375 C 679.3125 769.980469 682.898438 766.0625 685.683594 763.234375 C 688.46875 760.40625 690.75 757.792969 690.75 757.421875 C 690.75 757.050781 691.015625 756.75 691.339844 756.75 C 691.664062 756.75 693.007812 755.316406 694.324219 753.5625 C 697.324219 749.574219 700.46875 745.917969 705.75 740.292969 C 712.425781 733.179688 714.34375 730.984375 715.609375 729 C 716.269531 727.96875 718.875 724.972656 721.40625 722.339844 C 723.933594 719.703125 726 717.453125 726 717.332031 C 726 717.210938 727.640625 715.453125 729.644531 713.429688 C 731.648438 711.40625 733.589844 709.214844 733.957031 708.5625 C 734.996094 706.71875 741.667969 699.128906 746.4375 694.363281 C 748.808594 691.996094 750.75 689.707031 750.75 689.277344 C 750.75 688.851562 751.257812 688.5 751.875 688.5 C 752.496094 688.5 753 688.125 753 687.667969 C 753 686.277344 759.769531 678.339844 769.3125 668.542969 C 772.304688 665.472656 774.75 662.765625 774.75 662.523438 C 774.75 661.703125 781.042969 654.394531 786.15625 649.277344 C 788.957031 646.472656 791.261719 643.941406 791.273438 643.652344 C 791.289062 643.363281 792.46875 641.960938 793.898438 640.535156 C 795.328125 639.113281 796.5 637.707031 796.5 637.410156 C 796.5 636.726562 800.613281 632.089844 807.5625 624.941406 C 810.554688 621.863281 813 619.0625 813 618.710938 C 813 618.359375 813.429688 617.804688 813.957031 617.476562 C 814.480469 617.144531 815.449219 616.03125 816.101562 615 C 817.292969 613.128906 823.378906 606.410156 830.8125 598.765625 C 832.980469 596.539062 834.75 594.519531 834.75 594.273438 C 834.75 593.519531 840.886719 586.414062 846.1875 581.027344 C 848.972656 578.199219 851.25 575.589844 851.25 575.230469 C 851.25 574.871094 851.683594 574.304688 852.214844 573.976562 C 852.746094 573.644531 855.363281 570.683594 858.027344 567.390625 C 860.695312 564.101562 863.875 560.453125 865.097656 559.285156 C 866.578125 557.867188 867.03125 556.980469 866.457031 556.628906 C 865.980469 556.335938 865.222656 555.257812 864.765625 554.234375 C 863.519531 551.445312 862.136719 549.167969 860.746094 547.632812 C 860.0625 546.878906 859.5 545.683594 859.5 544.980469 C 859.5 544.277344 859.015625 543.519531 858.429688 543.292969 C 857.835938 543.066406 856.984375 541.980469 856.53125 540.878906 C 855.40625 538.152344 853.988281 535.78125 852.496094 534.132812 C 851.8125 533.378906 851.25 532.210938 851.25 531.539062 C 851.25 530.871094 850.828125 530.054688 850.3125 529.726562 C 848.917969 528.832031 846 524.464844 846 523.273438 C 846 522.699219 845.324219 521.621094 844.5 520.875 C 843.675781 520.128906 843 519.230469 843 518.875 C 843 518.523438 841.820312 516.554688 840.375 514.5 C 838.929688 512.445312 837.75 510.476562 837.75 510.121094 C 837.75 509.492188 835.871094 506.992188 833.707031 504.746094 C 833.109375 504.121094 832.394531 502.710938 832.117188 501.609375 C 831.839844 500.511719 831.140625 499.425781 830.558594 499.203125 C 829.976562 498.980469 829.5 498.449219 829.5 498.023438 C 829.5 497.597656 828.824219 496.574219 828 495.75 C 827.175781 494.925781 826.5 493.761719 826.5 493.167969 C 826.5 492.570312 825.320312 490.800781 823.878906 489.230469 C 822.4375 487.660156 821.253906 485.859375 821.253906 485.230469 C 821.25 484.597656 820.660156 483.515625 819.9375 482.816406 C 817.257812 480.234375 816.179688 478.835938 815.722656 477.359375 C 815.46875 476.527344 814.328125 474.824219 813.191406 473.578125 C 812.054688 472.332031 810.707031 470.480469 810.191406 469.46875 C 808.765625 466.648438 807.472656 464.738281 806.40625 463.878906 C 805.457031 463.117188 804.03125 460.867188 802.59375 457.875 C 802.199219 457.050781 800.859375 455.285156 799.617188 453.953125 C 798.375 452.617188 797.128906 450.796875 796.84375 449.90625 C 796.5625 449.015625 795.441406 447.386719 794.351562 446.289062 C 791.949219 443.867188 789 439.800781 789 438.90625 C 789 438.546875 787.65625 436.761719 786.011719 434.941406 C 784.367188 433.117188 783.015625 431.0625 783.011719 430.375 C 783.003906 429.6875 782.679688 429.011719 782.289062 428.875 C 781.335938 428.539062 774.75 420.011719 774.75 419.109375 C 774.75 418.71875 773.621094 417.324219 772.238281 416.011719 C 770.859375 414.699219 769.589844 413.289062 769.414062 412.875 C 768.546875 410.800781 765.519531 406.5 764.925781 406.5 C 764.554688 406.5 764.25 406.207031 764.25 405.84375 C 764.25 405.484375 763.070312 403.902344 761.632812 402.328125 C 760.191406 400.757812 758.808594 398.832031 758.5625 398.054688 C 758.316406 397.273438 757.046875 395.5 755.742188 394.113281 C 751.515625 389.613281 750 387.640625 750 386.640625 C 750 386.101562 749.492188 385.464844 748.875 385.230469 C 748.257812 384.992188 747.75 384.5 747.75 384.136719 C 747.75 383.773438 746.074219 381.695312 744.023438 379.523438 C 741.972656 377.351562 740.078125 374.894531 739.816406 374.0625 C 739.554688 373.234375 738.191406 371.503906 736.792969 370.21875 C 735.394531 368.9375 734.25 367.65625 734.25 367.378906 C 734.25 367.097656 732.984375 365.554688 731.4375 363.953125 C 729.890625 362.347656 728.117188 360.246094 727.5 359.289062 C 725.914062 356.824219 723.066406 353.371094 720 350.191406 C 715.953125 345.996094 709.90625 338.984375 709.605469 338.144531 C 709.460938 337.726562 708.191406 336.242188 706.792969 334.84375 C 705.394531 333.445312 704.25 332.136719 704.25 331.9375 C 704.25 331.214844 687.445312 314.984375 685.921875 314.234375 C 683.289062 312.941406 679.5 310.25 679.5 309.675781 C 679.5 309.304688 677.304688 309 674.625 309 C 671.917969 309 669.75 309.328125 669.75 309.742188 " fill-opacity="1" fill-rule="evenodd"/></svg>